# Wavefront OBJ exported by MilkShape 3D

mtllib QuidGoalMesh.mtl

v -4.242638 0.000013 -0.000029
v -4.242638 0.000013 -0.000029
v -4.242638 0.000013 -0.000029
v -4.126621 195.326111 -0.000010
v -4.126621 195.326111 -0.000010
v -4.126621 195.326111 -0.000010
v -4.126621 195.326111 -0.000010
v 0.000003 188.377213 -4.256833
v 0.000003 188.377213 -4.256833
v 0.000003 188.377213 -4.256833
v 0.000003 188.377213 -4.256833
v -4.010603 198.629776 -12.338116
v -4.010603 198.629776 -12.338116
v -4.010603 198.629776 -12.338116
v -4.010603 198.629776 -12.338116
v 4.126625 195.326111 -0.000009
v 4.126625 195.326111 -0.000009
v 4.126625 195.326111 -0.000009
v 4.126625 195.326111 -0.000009
v 4.010607 198.629776 12.893126
v 4.010607 198.629776 12.893126
v 4.010607 198.629776 12.893126
v 4.010607 198.629776 12.893126
v -4.010604 198.629776 12.338089
v -4.010604 198.629776 12.338089
v -4.010604 198.629776 12.338089
v -4.010604 198.629776 12.338089
v -4.010604 207.661896 21.370207
v -4.010604 207.661896 21.370207
v -4.010604 207.661896 21.370207
v -4.010604 207.661896 21.370207
v 4.010607 207.661896 21.370207
v 4.010607 207.661896 21.370207
v 4.010607 207.661896 21.370207
v 4.010607 207.661896 21.370207
v -4.010603 220.000000 24.676193
v -4.010603 220.000000 24.676193
v -4.010603 220.000000 24.676193
v -4.010603 220.000000 24.676193
v 4.010608 220.000000 24.676191
v 4.010608 220.000000 24.676191
v 4.010608 220.000000 24.676191
v 4.010608 220.000000 24.676191
v 4.010608 232.338104 21.370207
v 4.010608 232.338104 21.370207
v 4.010608 232.338104 21.370207
v 4.010608 232.338104 21.370207
v -4.010603 232.338104 21.370207
v -4.010603 232.338104 21.370207
v -4.010603 232.338104 21.370207
v -4.010603 232.338104 21.370207
v 4.010609 241.370224 12.338090
v 4.010609 241.370224 12.338090
v 0.000003 235.811386 27.386116
v 0.000003 235.811386 27.386116
v 0.000003 235.811386 27.386116
v 0.000003 235.811386 27.386116
v 0.000002 220.000000 31.622765
v 0.000002 220.000000 31.622765
v 0.000002 220.000000 31.622765
v 0.000002 220.000000 31.622765
v 0.000002 204.188614 27.386116
v 0.000002 204.188614 27.386116
v 0.000002 204.188614 27.386116
v 0.000002 204.188614 27.386116
v 4.010608 198.629776 -12.338115
v 4.010608 198.629776 -12.338115
v 4.010608 198.629776 -12.338115
v 4.010608 198.629776 -12.338115
v -4.010603 207.661896 -21.370234
v -4.010603 207.661896 -21.370234
v -4.010603 207.661896 -21.370234
v -4.010603 207.661896 -21.370234
v 4.010608 207.661896 -21.370232
v 4.010608 207.661896 -21.370232
v 4.010608 207.661896 -21.370232
v 4.010608 207.661896 -21.370232
v -4.010602 220.000000 -24.676216
v -4.010602 220.000000 -24.676216
v -4.010602 220.000000 -24.676216
v -4.010602 220.000000 -24.676216
v 4.010609 220.000000 -24.676214
v 4.010609 220.000000 -24.676214
v 4.010609 220.000000 -24.676214
v 4.010609 220.000000 -24.676214
v -4.010602 232.338104 -21.370232
v -4.010602 232.338104 -21.370232
v -4.010602 232.338104 -21.370232
v -4.010602 232.338104 -21.370232
v 0.000003 220.000000 -31.622787
v 0.000003 220.000000 -31.622787
v 0.000003 220.000000 -31.622787
v 0.000003 220.000000 -31.622787
v 0.000003 204.188614 -27.386141
v 0.000003 204.188614 -27.386141
v 0.000003 204.188614 -27.386141
v 0.000003 204.188614 -27.386141
v 4.010609 232.338104 -21.370228
v 4.010609 232.338104 -21.370228
v 4.010609 232.338104 -21.370228
v 4.010609 232.338104 -21.370228
v 4.010609 241.370224 -12.338111
v 4.010609 241.370224 -12.338111
v 4.010609 241.370224 -12.338111
v 4.010609 241.370224 -12.338111
v 0.000004 235.811386 -27.386137
v 0.000004 235.811386 -27.386137
v 0.000004 235.811386 -27.386137
v 0.000004 235.811386 -27.386137
v 0.000002 192.613876 -15.811401
v 0.000002 192.613876 -15.811401
v 0.000002 192.613876 -15.811401
v 0.000002 192.613876 -15.811401
v -4.010602 241.370224 -12.338111
v -4.010602 241.370224 -12.338111
v -4.010602 241.370224 -12.338111
v -4.010602 241.370224 -12.338111
v 4.010609 244.676208 -0.000008
v 4.010609 244.676208 -0.000008
v 0.000004 247.386124 -15.811396
v 0.000004 247.386124 -15.811396
v 0.000004 247.386124 -15.811396
v 0.000004 247.386124 -15.811396
v 0.000002 188.377213 4.208034
v 0.000002 188.377213 4.208034
v 0.000002 188.377213 4.208034
v 0.000002 192.613876 15.811016
v 0.000002 192.613876 15.811016
v 0.000002 192.613876 15.811016
v 0.000003 0.000013 4.242612
v 0.000003 0.000013 4.242612
v 0.000003 0.000013 4.242612
v -4.010602 241.370224 12.338090
v -4.010602 241.370224 12.338090
v -4.010602 244.676208 -0.000008
v -4.010602 244.676208 -0.000008
v 0.000003 247.386124 15.811377
v 0.000003 247.386124 15.811377
v 0.000004 251.622772 -0.000007
v 0.000004 251.622772 -0.000007
v 4.242643 0.000013 -0.000028
v 4.242643 0.000013 -0.000028
v 0.000003 0.000014 -4.242669
v 0.000003 0.000014 -4.242669
# 144 vertices

vt 0.000000 0.000000
vt 1.000000 1.000000
vt 0.000000 1.000000
vt 1.000000 0.000000
# 4 texture coordinates

vn 0.000000 1.000000 0.000000
vn 0.858356 0.495573 -0.132788
vn 0.814216 -0.446166 -0.371469
vn 0.814216 -0.446166 0.371469
vn -0.000000 -0.965926 0.258819
vn -0.814216 -0.446166 0.371469
vn -0.814216 -0.446165 -0.371469
vn -0.858356 0.495573 -0.132788
vn 0.858356 0.362784 -0.362784
vn -0.000000 -0.707107 0.707107
vn -0.858356 0.362784 -0.362784
vn 0.858356 0.132788 -0.495572
vn -0.000000 -0.258819 0.965926
vn -0.858356 0.132788 -0.495572
vn 0.858356 -0.132788 -0.495572
vn -0.000000 0.258819 0.965926
vn -0.858356 -0.132788 -0.495572
vn 0.858356 -0.362784 -0.362784
vn -0.000000 0.707107 0.707107
vn -0.858356 -0.362784 -0.362784
vn 0.874402 -0.461756 -0.149002
vn 0.925582 -0.346986 0.151326
vn 0.888486 -0.430854 -0.157979
vn 0.859239 -0.492089 -0.139842
vn -0.000000 0.965971 0.258650
vn -0.475056 0.802458 0.361085
vn -0.874356 -0.461153 -0.151127
vn -0.885205 -0.447225 -0.128073
vn -0.862771 -0.474692 -0.174053
vn 0.146430 -0.475654 0.867359
vn 0.504247 0.504434 -0.700914
vn -0.001957 -0.843496 0.537132
vn 0.178826 -0.471612 0.863483
vn 0.910269 -0.255699 -0.325619
vn 0.884257 -0.450411 0.123368
vn 0.348912 0.932168 0.096552
vn 0.008582 0.967335 -0.253355
vn 0.017163 0.968599 -0.248034
vn -0.557517 0.754987 0.345209
vn -0.859981 -0.185116 -0.475567
vn -0.859236 -0.492095 0.139843
vn -0.178426 -0.442299 0.878940
vn 0.480718 -0.689631 0.541589
vn 0.850022 -0.366366 0.378470
vn 0.858355 -0.362791 0.362780
vn 0.841409 -0.369821 0.394035
vn 0.024446 0.695600 -0.718013
vn 0.000000 0.684348 -0.729156
vn 0.048871 0.706262 -0.706262
vn -0.858352 -0.362792 0.362786
vn 0.858356 -0.132788 0.495572
vn -0.000000 0.258819 -0.965926
vn -0.858356 -0.132788 0.495572
vn 0.858356 0.132788 0.495572
vn -0.000000 -0.258819 -0.965926
vn -0.858356 0.132788 0.495572
vn 0.858356 0.362784 0.362784
vn 0.814216 -0.572125 0.098619
vn 0.000000 0.866025 0.500000
vn 0.000000 -0.707107 -0.707107
vn -0.814216 -0.200656 -0.544785
vn 0.814216 -0.200656 -0.544785
vn -0.858356 0.362784 0.362784
vn -0.814216 -0.572125 0.098619
vn -0.712597 0.000184 -0.701573
vn -0.707107 0.000420 -0.707107
vn -0.718045 -0.000052 -0.695997
vn -0.707107 0.000130 0.707107
vn -0.713630 0.000424 0.700522
vn 0.707107 0.000420 0.707107
vn 0.713874 0.000129 0.700274
vn 0.712401 0.000187 -0.701773
vn 0.707107 -0.000053 -0.707107
# 73 normals

g QuidGoalTex0
usemtl QuidGoalTex0
s 1
f 139/1/1 103/2/2 120/3/2
f 139/1/1 119/4/3 103/2/2
f 118/1/4 115/2/5 102/3/5
f 118/1/4 136/4/6 115/2/5
f 135/1/7 121/2/8 114/3/8
f 135/1/7 140/4/1 121/2/8
f 122/1/9 99/2/9 106/3/9
f 122/1/9 105/4/9 99/2/9
f 104/1/10 87/2/10 98/3/10
f 104/1/10 117/4/10 87/2/10
f 116/1/11 107/2/11 86/3/11
f 116/1/11 123/4/11 107/2/11
f 108/1/12 83/2/12 90/3/12
f 108/1/12 101/4/12 83/2/12
f 100/1/13 79/2/13 82/3/13
f 100/1/13 89/4/13 79/2/13
f 88/1/14 91/2/14 78/3/14
f 88/1/14 109/4/14 91/2/14
f 92/1/15 75/2/15 94/3/15
f 92/1/15 85/4/15 75/2/15
f 84/1/16 71/2/16 74/3/16
f 84/1/16 81/4/16 71/2/16
f 80/1/17 95/2/17 70/3/17
f 80/1/17 93/4/17 95/2/17
f 96/1/18 67/2/18 110/3/18
f 96/1/18 77/4/18 67/2/18
f 76/1/19 13/2/19 66/3/19
f 76/1/19 73/4/19 13/2/19
f 72/1/20 111/2/20 12/3/20
f 72/1/20 97/4/20 111/2/20
f 112/1/21 17/2/22 8/3/23
f 112/1/21 69/4/24 17/2/22
f 68/1/25 5/2/26 16/3/25
f 68/1/25 15/4/25 5/2/26
f 14/1/27 9/2/27 4/3/28
f 14/1/27 113/4/29 9/2/27
f 125/2/30 22/1/31 129/4/32
f 126/1/33 19/4/34 21/2/35
f 18/1/36 25/2/37 20/3/38
f 18/1/36 7/4/39 25/2/37
f 6/1/40 127/2/41 24/3/41
f 5/2/26 124/3/42 128/1/43
f 128/1/43 33/2/44 62/3/45
f 128/1/43 23/4/46 33/2/44
f 22/1/31 29/2/47 32/3/48
f 22/1/31 27/4/49 29/2/47
f 26/1/50 63/2/50 28/3/50
f 26/1/50 129/4/32 63/2/50
f 64/1/51 41/2/51 58/3/51
f 64/1/51 35/4/51 41/2/51
f 34/1/52 37/2/52 40/3/52
f 34/1/52 31/4/52 37/2/52
f 30/1/53 59/2/53 36/3/53
f 30/1/53 65/4/53 59/2/53
f 60/1/54 45/2/54 54/3/54
f 60/1/54 43/4/54 45/2/54
f 42/1/55 49/2/55 44/3/55
f 42/1/55 39/4/55 49/2/55
f 38/1/56 55/2/56 48/3/56
f 38/1/56 61/4/56 55/2/56
f 56/1/57 53/2/58 137/3/59
f 56/1/57 47/4/57 53/2/58
f 46/1/60 134/2/61 52/3/62
f 46/1/60 51/4/60 134/2/61
f 50/1/63 138/2/59 133/3/64
f 50/1/63 57/4/63 138/2/59
f 138/2/59 118/1/4 140/4/1
f 138/2/59 52/3/62 118/1/4
f 53/2/58 135/1/7 119/4/3
f 53/2/58 133/3/64 135/1/7
f 134/2/61 139/1/1 136/4/6
f 134/2/61 137/3/59 139/1/1
f 144/2/65 1/3/66 6/1/40
f 6/1/40 11/4/67 144/2/65
f 3/1/68 132/4/68 125/2/30
f 126/1/33 7/4/39 2/2/69
f 130/2/70 141/3/70 18/1/36
f 17/2/22 124/3/42 131/1/71
f 142/2/72 143/3/73 10/1/72
f 10/1/72 19/4/34 142/2/72
# 80 triangles in group

# 80 triangles total

